HIERARCHY
ROOT Hips
{
	OFFSET -0.179506 -22.333345 2.821913
	CHANNELS 6 Xposition Yposition Zposition Zrotation Yrotation Xrotation 
	JOINT LeftUpLeg
	{
		OFFSET 6.951974 -9.140623 -0.681533
		CHANNELS 3 Zrotation Yrotation Xrotation
		JOINT LeftLeg
		{
			OFFSET 3.427654 -37.519855 -0.449580
			CHANNELS 3 Zrotation Yrotation Xrotation
			JOINT LeftFoot
			{
				OFFSET -1.359570 -39.796059 -4.369333
				CHANNELS 3 Zrotation Yrotation Xrotation
				JOINT LeftToe
				{
					OFFSET 2.635814 -5.579078 11.928840
					CHANNELS 3 Zrotation Yrotation Xrotation
					End Site
					{
						OFFSET 0.000000 0.000000 0.000000
					}
				}
			}
		}
	}
	JOINT RightUpLeg
	{
		OFFSET -6.767048 -9.052170 -0.431982
		CHANNELS 3 Zrotation Yrotation Xrotation
		JOINT RightLeg
		{
			OFFSET -3.829005 -38.256897 -0.885003
			CHANNELS 3 Zrotation Yrotation Xrotation
			JOINT RightFoot
			{
				OFFSET 1.577377 -39.841461 -4.231180
				CHANNELS 3 Zrotation Yrotation Xrotation
				JOINT RightToe
				{
					OFFSET -2.537174 -4.814398 12.334795
					CHANNELS 3 Zrotation Yrotation Xrotation
					End Site
					{
						OFFSET 0.000000 0.000000 0.000000
					}
				}
			}
		}
	}
	JOINT Spine
	{
		OFFSET -0.253288 10.896323 -2.669631
		CHANNELS 3 Zrotation Yrotation Xrotation
		JOINT Spine1
		{
			OFFSET 0.548704 13.518043 0.109247
			CHANNELS 3 Zrotation Yrotation Xrotation
			JOINT Spine2
			{
				OFFSET 0.145701 5.292222 2.542457
				CHANNELS 3 Zrotation Yrotation Xrotation
				JOINT Neck
				{
					OFFSET -0.277840 21.387037 -4.285703
					CHANNELS 3 Zrotation Yrotation Xrotation
					JOINT Head
					{
						OFFSET 0.515184 6.496960 5.134897
						CHANNELS 3 Zrotation Yrotation Xrotation
						End Site
						{
							OFFSET 0.000000 0.000000 0.000000
						}
					}
				}
				JOINT LeftShoulder
				{
					OFFSET 7.884473 12.174932 -3.408961
					CHANNELS 3 Zrotation Yrotation Xrotation
					JOINT LeftArm
					{
						OFFSET 9.097692 3.046888 -0.886815
						CHANNELS 3 Zrotation Yrotation Xrotation
						JOINT LeftForeArm
						{
							OFFSET 25.961220 -1.277207 -2.745643
							CHANNELS 3 Zrotation Yrotation Xrotation
							JOINT LeftHand
							{
								OFFSET 24.923361 0.898606 -0.117091
								CHANNELS 3 Zrotation Yrotation Xrotation
								End Site
								{
									OFFSET 0.000000 0.000000 0.000000
								}
							}
						}
					}
				}
				JOINT RightShoulder
				{
					OFFSET -8.175920 11.883285 -3.861528
					CHANNELS 3 Zrotation Yrotation Xrotation
					JOINT RightArm
					{
						OFFSET -9.601238 3.255117 -0.914307
						CHANNELS 3 Zrotation Yrotation Xrotation
						JOINT RightForeArm
						{
							OFFSET -25.374195 -1.332924 -2.140099
							CHANNELS 3 Zrotation Yrotation Xrotation
							JOINT RightHand
							{
								OFFSET -25.529810 0.777228 -0.555919
								CHANNELS 3 Zrotation Yrotation Xrotation
								End Site
								{
									OFFSET 0.000000 0.000000 0.000000
								}
							}
						}
					}
				}
			}
		}
	}
}
MOTION
Frames: 10
Frame Time: 0.033333
282.423126 -241.539536 90.193840 39.947022 4.286414 74.145412 5.067007 1.349706 -14.060318 -12.952425 -13.212309 40.682046 3.439684 4.312899 -12.498577 nan nan nan -9.485321 -6.226518 9.904563 5.556875 4.135207 64.398743 11.707996 1.367493 -4.270155 nan nan nan 0.622160 7.931278 13.233583 5.243489 4.012417 -0.408384 2.239780 7.356791 -0.892187 0.152664 -7.950618 -7.028478 1.408666 -12.537172 -12.324656 -13.793559 11.279000 0.759183 -20.998582 20.588604 18.727577 -133.878550 -64.349941 146.572784 -24.127185 -21.206194 -17.212899 20.931086 -0.623854 -10.824744 14.711777 -6.505988 0.440327 -157.855867 79.491844 -157.430981 10.137285 12.262939 -3.928254 
281.275635 -240.347260 90.768326 40.080526 4.350152 74.210130 4.885793 1.029161 -14.180025 -11.786166 -13.525009 38.154695 2.852854 4.056742 -9.907404 nan nan nan -8.113727 -5.857693 12.463530 5.550675 5.309465 61.310291 11.796967 1.905195 -4.041733 nan nan nan 1.137065 8.410743 13.009696 4.742292 4.690910 -0.592277 1.953792 8.221323 -1.092445 -0.226957 -9.324013 -6.144408 2.255431 -13.569382 -12.470910 -12.921865 11.920176 0.534445 -20.389712 20.934498 19.028241 -136.010842 -63.844925 148.200828 -24.376517 -22.000732 -15.397689 19.185143 -0.598217 -9.973322 14.203677 -7.536966 -0.268457 -162.681313 79.203279 -162.889109 9.085211 12.966830 -2.449649 
280.009491 -239.153137 91.414711 40.295139 4.149444 74.518063 4.470537 0.059958 -14.047485 -10.757149 -14.313747 34.730379 2.220076 4.358057 -7.061391 nan nan nan -6.817506 -5.427639 14.385140 5.558938 6.398358 58.267973 11.907204 1.931028 -4.320037 nan nan nan 1.253893 8.865233 12.164469 4.164325 5.412026 -0.074149 1.625927 8.858222 -1.496874 -0.404429 -10.571267 -4.803409 3.079920 -14.374968 -13.196994 -12.454852 12.991234 -0.029341 -19.327127 20.634865 18.907543 -138.229133 -63.290098 150.452244 -25.277191 -22.322478 -15.424682 17.915367 -0.581287 -9.101901 13.786876 -8.107602 -0.598772 -166.831627 79.034712 -166.730455 9.190761 12.951664 -2.222554 
279.066498 -238.009750 92.032204 40.601172 3.343216 74.310861 2.999753 -0.888346 -12.496910 -9.144322 -15.742205 30.185544 1.860808 4.936473 -4.016159 nan nan nan -6.905974 -5.522399 17.040233 5.725704 8.097306 54.778676 11.676748 2.398193 -3.816799 nan nan nan 1.470751 9.544384 10.955552 3.341408 5.903947 1.166283 1.065518 9.220969 -1.320049 -0.639832 -12.144528 -3.957784 3.988482 -14.673804 -13.604797 -11.934332 13.489006 -0.453354 -18.611521 20.391355 18.856857 -140.647758 -63.022091 153.057797 -25.544729 -22.598423 -15.473539 16.439982 -0.570447 -8.814692 13.728762 -8.872544 -0.243081 -172.975596 78.281952 -172.688896 11.061464 12.904806 -3.804349 
277.847412 -236.645569 92.717422 40.274341 2.861819 74.828103 2.281877 -1.941027 -11.926634 -7.163145 -16.105131 25.218272 0.638127 5.602595 -0.175871 nan nan nan -6.089935 -4.942407 17.905529 5.307154 9.187483 51.924300 12.176322 2.523768 -4.305080 nan nan nan 1.815255 10.031137 9.981087 2.619323 6.418713 2.041089 0.563778 9.829722 -2.102344 -1.287901 -13.183841 -2.373016 5.092061 -14.867952 -14.363444 -11.689302 13.967058 -1.317980 -17.690388 20.811764 19.254233 -142.136775 -62.759752 154.524723 -23.926942 -22.771518 -14.966814 15.291979 -0.073674 -7.888489 13.080859 -9.180411 -0.887732 -178.937933 78.514399 -178.370391 9.236341 12.910011 -2.190575 
276.567352 -235.341644 93.400703 40.284196 2.431559 75.309936 1.658410 -3.121573 -11.235464 -5.103744 -16.265649 19.837544 -0.728605 6.394694 4.252541 nan nan nan -5.185129 -4.448079 18.690860 4.810896 9.858363 49.129727 11.538946 2.575531 -4.840410 nan nan nan 2.004077 10.325575 9.080610 2.009743 6.677979 2.801617 0.085851 10.067267 -2.774920 -1.832822 -13.846317 -0.824303 6.151929 -15.088996 -15.034439 -11.459754 14.478026 -1.843247 -17.262056 21.349898 19.271064 -143.794953 -62.882029 156.389475 -23.883129 -22.940313 -14.665494 14.355387 0.189202 -6.723002 12.672840 -9.360859 -0.802813 174.067181 77.773717 174.963008 9.827910 13.899342 -3.057501 
275.267883 -234.123825 94.039955 40.426107 2.098771 75.873865 1.275865 -4.194102 -10.430503 -3.189799 -16.523674 14.236131 -1.832936 7.376632 8.492966 nan nan nan -4.238453 -3.949894 19.342578 4.181011 9.958258 46.269068 11.256453 2.753668 -5.778927 nan nan nan 1.916581 10.482056 8.050106 1.567218 6.763300 3.398794 -0.139975 10.068932 -3.374919 -2.170451 -14.100114 0.417145 6.742972 -15.112649 -15.303564 -11.019788 14.759932 -1.297358 -17.967132 22.380861 18.634250 -146.142614 -63.375044 159.543938 -23.120383 -23.614773 -14.353329 13.291393 0.669919 -5.435064 12.736160 -9.345716 -0.846971 167.955440 77.162922 169.850114 10.871718 15.828086 -3.867338 
273.996185 -232.999298 94.631584 40.391624 1.865470 76.863932 1.184340 -4.680555 -10.237733 -1.654443 -16.858657 9.629986 -2.337352 8.257497 11.043393 nan nan nan -3.344550 -3.673209 19.270542 3.455608 10.040592 43.585713 10.877386 2.875173 -6.606802 nan nan nan 1.562757 10.655127 6.122655 1.348153 6.761952 4.266447 -0.203621 10.039537 -3.943674 -2.317532 -14.115257 1.463478 7.058261 -14.935527 -15.374051 -10.622560 14.974904 -0.206488 -18.996686 23.281577 17.628323 -148.341408 -63.686933 162.252461 -21.934348 -23.737556 -13.871489 12.437577 1.046404 -4.203438 12.870596 -9.077060 -0.732340 163.139006 76.701563 165.701755 9.982697 16.905255 -5.496170 
272.593597 -231.729340 95.142090 40.921208 1.720769 77.814761 1.104125 -5.206538 -11.063709 -0.936959 -16.613941 7.770745 -1.869972 8.435004 10.781140 nan nan nan -2.616507 -3.774308 18.929855 2.960111 9.699634 41.343047 10.252390 2.997293 -7.612666 nan nan nan 1.237263 10.670475 5.058822 1.026198 6.450963 4.668650 -0.316898 9.883784 -4.772034 -2.519439 -14.497492 2.351608 7.544427 -14.551016 -15.592897 -10.471621 15.091649 0.581681 -20.055338 23.745148 16.633684 -150.423791 -63.852315 164.404613 -20.949632 -23.340980 -13.342540 11.736610 1.144941 -3.459229 13.188707 -9.007707 -0.252931 158.863991 76.097375 161.728289 9.136749 17.601583 -6.282943 
271.169250 -230.413147 95.575821 41.464990 1.533996 78.871305 1.043308 -5.467604 -12.439668 -0.643896 -15.820138 7.376171 -0.968721 7.840430 9.046688 nan nan nan -2.201683 -3.932081 18.162765 2.536172 8.929201 39.410957 10.181639 3.187610 -9.004745 nan nan nan 0.964156 10.473727 4.620697 0.523395 6.069919 4.359781 -0.594773 9.784607 -5.786571 -2.580983 -14.793196 3.242211 8.084036 -14.179342 -15.741154 -10.432150 15.434117 1.243525 -20.828256 23.730839 15.869310 -152.029554 -64.035636 165.782206 -20.076823 -23.429376 -12.718513 11.495106 1.002085 -2.696358 13.858450 -9.097999 0.197054 154.960178 75.390686 158.267707 9.066651 18.762325 -6.380282 
